# xmcd CD database file
#
# Track frame offsets:
#	150
#	27230
#	41067
#	56525
#	75927
#	86795
#	116675
#	136382
#	153540
#	173997
#	197625
#	214765
#	241670
#	264147
#	288910
#	308327
#
# Disc length: 4391 seconds
#
# Revision: 0
# Processed by: cddbd v1.4PL0 Copyright (c) Steve Scherf et al.
# Submitted via: CDex 1.51
#
DISCID=cd112510
DTITLE=McGuffey Lane - Live On High Steet
DYEAR=1987
DGENRE=Country
TTITLE0=Ain't Life Funny
TTITLE1=People Like You
TTITLE2=Ain't No One (To Love You Like I Do)
TTITLE3=Do You Think (We'll Ever Fall In Love)
TTITLE4=Bert
TTITLE5=Long Time Lovin' You
TTITLE6=But It's Alright
TTITLE7=1, 2, 3
TTITLE8=Muleskinner Blues
TTITLE9=Hello In There
TTITLE10=Diana Might
TTITLE11=Outlaw Rider
TTITLE12=Be A Friend Of Mine
TTITLE13=Let's Hold On To The Night
TTITLE14=The Legend
TTITLE15=Rock N' Roll (Will Keep You Young)
EXTD=YEAR: 1987
EXTT0=
EXTT1=
EXTT2=
EXTT3=
EXTT4=
EXTT5=
EXTT6=
EXTT7=
EXTT8=
EXTT9=
EXTT10=
EXTT11=
EXTT12=
EXTT13=
EXTT14=
EXTT15=
PLAYORDER=
